<?xml version="1.0" encoding="UTF-8" standalone="no"?>
<svg width="127px" height="150px" viewBox="0 0 127 150" version="1.1" xmlns="http://www.w3.org/2000/svg" xmlns:xlink="http://www.w3.org/1999/xlink">
    <!-- Generator: Sketch 3.6.1 (26313) - http://www.bohemiancoding.com/sketch -->
    <title>Combined Shape</title>
    <desc>Created with Sketch.</desc>
    <defs></defs>
    <g id="Page-1" stroke="none" stroke-width="1" fill="none" fill-rule="evenodd">
        <path d="M0.738484388,19.53125 C14.0634912,7.39746749 31.7774217,0 51.2191232,0 C92.6404794,0 126.219123,33.5786438 126.219123,75 C126.219123,116.421356 92.6404794,150 51.2191232,150 C31.4160417,150 13.4055595,142.32497 9.76996262e-15,129.787234 L29.7181259,129.787234 C35.3531274,129.787234 40.5766457,129.288569 45.3888373,128.291223 C50.2010289,127.293878 54.3773502,125.448817 57.9179264,122.755984 C61.0595644,120.412222 63.6775569,117.519964 65.7719823,114.079122 C69.0632221,108.892926 70.7088174,103.03361 70.7088174,96.5009973 C70.7088174,90.167854 69.2751548,84.7822695 66.4077868,80.3440824 C63.5404187,75.9058954 59.2892977,72.6645714 53.6542961,70.6200133 C57.3444741,68.725057 60.1369994,66.6306631 62.0319557,64.3367686 C65.4229301,60.2476524 67.1183918,54.8371347 67.1183918,48.1050532 C67.1183918,41.5724407 65.4229301,35.9624569 62.0319557,31.2749335 C56.3969541,23.6452411 46.8225817,19.7307191 33.3085514,19.53125 L0.738484388,19.53125 Z M78.1408891,119.441827 C78.1408891,117.908959 78.4328596,116.467354 79.0168095,115.11697 C79.6007594,113.766586 80.3854303,112.580455 81.3708457,111.558543 C82.3562612,110.536631 83.5241434,109.733712 84.8745275,109.149762 C86.2249116,108.565812 87.6665163,108.273842 89.1993847,108.273842 C90.7322532,108.273842 92.192106,108.565812 93.5789869,109.149762 C94.9658679,109.733712 96.1519983,110.536631 97.1374138,111.558543 C98.1228292,112.580455 98.9075001,113.766586 99.4914499,115.11697 C100.0754,116.467354 100.36737,117.908959 100.36737,119.441827 C100.36737,120.974696 100.0754,122.4163 99.4914499,123.766684 C98.9075001,125.117069 98.1228292,126.284951 97.1374138,127.270366 C96.1519983,128.255782 94.9658679,129.022204 93.5789869,129.569657 C92.192106,130.11711 90.7322532,130.390833 89.1993847,130.390833 C87.6665163,130.390833 86.2249116,130.11711 84.8745275,129.569657 C83.5241434,129.022204 82.3562612,128.255782 81.3708457,127.270366 C80.3854303,126.284951 79.6007594,125.117069 79.0168095,123.766684 C78.4328596,122.4163 78.1408891,120.974696 78.1408891,119.441827 Z M85.1482527,99.8431072 C84.3453216,92.9087024 83.5606507,86.9780503 82.7942165,82.0509732 C82.0277822,77.123896 81.316104,72.8720747 80.6591604,69.2953817 C80.0022167,65.7186887 79.3817793,62.6347496 78.7978294,60.043472 C78.2138795,57.4521944 77.7029311,55.0069409 77.2649686,52.7076382 C76.8270062,50.4083356 76.4985393,48.0725711 76.2795581,45.7002747 C76.0605769,43.3279783 75.951088,40.5725061 75.951088,37.4337755 C75.951088,34.5870198 76.3342993,32.0322774 77.1007336,29.7694716 C77.8671678,27.5066658 78.8708166,25.590609 80.1117101,24.0212436 C81.3526036,22.4518783 82.7577119,21.2474998 84.3270772,20.4080718 C85.8964425,19.5686439 87.5205288,19.1489362 89.1993847,19.1489362 C90.8052469,19.1489362 92.411085,19.5686439 94.0169472,20.4080718 C95.6228093,21.2474998 97.0279177,22.4518783 98.2323143,24.0212436 C99.4367109,25.590609 100.422112,27.5066658 101.188546,29.7694716 C101.95498,32.0322774 102.338191,34.5870198 102.338191,37.4337755 C102.338191,40.5725061 102.228702,43.3279783 102.009721,45.7002747 C101.79074,48.0725711 101.462273,50.4083356 101.024311,52.7076382 C100.586348,55.0069409 100.093648,57.4521944 99.546195,60.043472 C98.998742,62.6347496 98.3965527,65.7186887 97.7396091,69.2953817 C97.0826654,72.8720747 96.3709872,77.123896 95.604553,82.0509732 C94.8381187,86.9780503 94.0899442,92.9087024 93.3600068,99.8431072 L85.1482527,99.8431072 Z M1.74272693,38.6801862 L1.74272693,62.990359 L28.8205195,62.990359 C33.6576447,62.990359 37.5846334,62.080295 40.6016033,60.2601396 C43.6185731,58.4399843 45.1270354,55.2111269 45.1270354,50.5734707 C45.1270354,45.4371419 43.1323745,42.0462183 39.1429929,40.4005984 C35.7021512,39.2536512 31.3138972,38.6801862 25.9780993,38.6801862 L1.74272693,38.6801862 Z M1.74272693,81.2416888 L1.74272693,110.638298 L28.8205195,110.638298 C33.6576447,110.638298 37.4225672,109.990033 40.1153998,108.693484 C45.0023923,106.299855 47.4458519,101.712135 47.4458519,94.9301862 C47.4458519,89.19545 45.0771921,85.2559948 40.3398014,83.1117021 C37.6968361,81.9148876 33.9817801,81.2915561 29.1945221,81.2416888 L1.74272693,81.2416888 Z" id="Combined-Shape" fill="#0275D8"></path>
    </g>
</svg>